<svg id="Layer_1" data-name="Layer 1" xmlns="http://www.w3.org/2000/svg" xmlns:xlink="http://www.w3.org/1999/xlink" viewBox="0 0 908 909"><defs><style>.cls-1{fill:none;}.cls-2{clip-path:url(#clip-path);}.cls-3,.cls-8{fill:#46b1e1;}.cls-3,.cls-5{fill-rule:evenodd;}.cls-4{clip-path:url(#clip-path-2);}.cls-5,.cls-7{fill:#111;}.cls-6{clip-path:url(#clip-path-3);}</style><clipPath id="clip-path" transform="translate(0 0)"><rect class="cls-1" y="390" width="325" height="519"/></clipPath><clipPath id="clip-path-2" transform="translate(0 0)"><rect class="cls-1" width="908" height="909"/></clipPath><clipPath id="clip-path-3" transform="translate(0 0)"><rect class="cls-1" x="370" width="538" height="909"/></clipPath></defs><g class="cls-2"><path class="cls-3" d="M324,909C144.75,908.76-.3,792.39,0,649.07.3,505.92,145.49,390,324.5,390V519.75c-107.56,0-194.75,58.09-194.75,129.75s87,129.65,194.48,129.75Z" transform="translate(0 0)"/></g><g class="cls-4"><path class="cls-5" d="M324.5,520C145.28,520,0,403.59,0,260S145.28,0,324.5,0V130C217.08,130,130,188.2,130,260s87.08,130,194.5,130Z" transform="translate(0 0)"/></g><g class="cls-6"><rect class="cls-7" x="370" width="166" height="909"/><path class="cls-3" d="M582.81,0C762-.38,907.62,144.6,908,323.81v.69H742.32A158.82,158.82,0,0,0,583.5,165.68h-.34Z" transform="translate(0 0)"/><rect class="cls-8" x="742" y="371" width="166" height="538"/></g></svg>