<svg width="908" height="909" xmlns="http://www.w3.org/2000/svg" xmlns:xlink="http://www.w3.org/1999/xlink" xml:space="preserve" overflow="hidden"><defs><clipPath id="clip0"><rect x="734" y="843" width="908" height="909"/></clipPath><clipPath id="clip1"><rect x="733" y="1233" width="325" height="260"/></clipPath><clipPath id="clip2"><rect x="733" y="1233" width="325" height="260"/></clipPath><clipPath id="clip3"><rect x="733" y="1233" width="325" height="517"/></clipPath><clipPath id="clip4"><rect x="733" y="1233" width="325" height="517"/></clipPath><clipPath id="clip5"><rect x="733" y="1491" width="325" height="262"/></clipPath><clipPath id="clip6"><rect x="733" y="1491" width="325" height="262"/></clipPath><clipPath id="clip7"><rect x="734" y="842" width="325" height="262"/></clipPath><clipPath id="clip8"><rect x="734" y="842" width="325" height="262"/></clipPath><clipPath id="clip9"><rect x="734" y="1102" width="325" height="260"/></clipPath><clipPath id="clip10"><rect x="734" y="1102" width="325" height="260"/></clipPath><clipPath id="clip11"><rect x="734" y="845" width="325" height="517"/></clipPath><clipPath id="clip12"><rect x="734" y="845" width="325" height="517"/></clipPath></defs><g clip-path="url(#clip0)" transform="translate(-734 -843)"><g clip-path="url(#clip1)"><g clip-path="url(#clip2)"><g clip-path="url(#clip3)"><g clip-path="url(#clip4)"><path d="M1050.46 1741.22C872.345 1740.98 728.194 1625.33 728.49 1482.89 728.784 1340.62 873.087 1225.41 1050.99 1225.41L1050.99 1354.36C944.097 1354.36 857.441 1412.1 857.441 1483.32 857.441 1554.47 943.935 1612.17 1050.72 1612.27Z" fill="#46B1E1" fill-rule="evenodd" transform="matrix(1 0 0 1.00182 5.51038 5.35907)"/></g></g></g></g><g clip-path="url(#clip5)"><g clip-path="url(#clip6)"><g><g><path d="M1050.46 1741.22C872.345 1740.98 728.194 1625.33 728.49 1482.89 728.784 1340.62 873.087 1225.41 1050.99 1225.41L1050.99 1354.36C944.097 1354.36 857.441 1412.1 857.441 1483.32 857.441 1554.47 943.935 1612.17 1050.72 1612.27Z" fill="#46B1E1" fill-rule="evenodd" transform="matrix(1 0 0 -1.00182 5.51038 2979.64)"/></g></g></g></g><rect x="1104" y="843" width="166" height="909" fill="#111111"/><path d="M1315.82 843.004C1495.03 842.076 1641.07 986.605 1642 1165.82 1642 1166.38 1642 1166.94 1642 1167.5L1479.75 1167.5C1479.75 1077.89 1407.11 1005.25 1317.5 1005.25 1317.22 1005.25 1316.94 1005.25 1316.66 1005.25Z" fill="#46B1E1" fill-rule="evenodd"/><rect x="1476" y="1214" width="166" height="538" fill="#46B1E1"/><g clip-path="url(#clip7)"><g clip-path="url(#clip8)"><g><g><path d="M1050.46 1741.22C872.345 1740.98 728.194 1625.33 728.49 1482.89 728.784 1340.62 873.087 1225.41 1050.99 1225.41L1050.99 1354.36C944.097 1354.36 857.441 1412.1 857.441 1483.32 857.441 1554.47 943.935 1612.17 1050.72 1612.27Z" fill="#111111" fill-rule="evenodd" transform="matrix(1 0 0 1.00182 6.51041 -384.643)"/></g></g></g></g><g clip-path="url(#clip9)"><g clip-path="url(#clip10)"><g clip-path="url(#clip11)"><g clip-path="url(#clip12)"><path d="M1050.46 1741.22C872.345 1740.98 728.194 1625.33 728.49 1482.89 728.784 1340.62 873.087 1225.41 1050.99 1225.41L1050.99 1354.36C944.097 1354.36 857.441 1412.1 857.441 1483.32 857.441 1554.47 943.935 1612.17 1050.72 1612.27Z" fill="#111111" fill-rule="evenodd" transform="matrix(1 0 0 -1.00182 6.51041 2589.64)"/></g></g></g></g></g></svg>