<svg width="909" height="910" xmlns="http://www.w3.org/2000/svg" xmlns:xlink="http://www.w3.org/1999/xlink" xml:space="preserve" overflow="hidden"><defs><clipPath id="clip0"><rect x="733" y="842" width="909" height="910"/></clipPath></defs><g clip-path="url(#clip0)" transform="translate(-733 -842)"><rect x="1104" y="843" width="166" height="909" fill="#111111"/><path d="M1056.96 1752C877.746 1751.76 732.703 1635.39 733 1492.07 733.296 1348.92 878.493 1233 1057.5 1233L1057.5 1362.75C949.942 1362.75 862.75 1420.84 862.75 1492.5 862.75 1564.09 949.779 1622.15 1057.23 1622.25Z" fill="#46B1E1" fill-rule="evenodd"/><path d="M1315.82 843.004C1495.03 842.076 1641.07 986.605 1642 1165.82 1642 1166.38 1642 1166.94 1642 1167.5L1479.75 1167.5C1479.75 1077.89 1407.11 1005.25 1317.5 1005.25 1317.22 1005.25 1316.94 1005.25 1316.66 1005.25Z" fill="#46B1E1" fill-rule="evenodd"/><rect x="1476" y="1214" width="166" height="538" fill="#46B1E1"/><path d="M1056.96 1363C877.746 1362.76 732.703 1246.16 733 1102.57 733.297 959.143 878.493 842.999 1057.5 842.999L1057.5 973C950.08 973 863 1031.2 863 1103 863 1174.73 949.917 1232.9 1057.23 1233Z" fill="#111111" fill-rule="evenodd"/></g></svg>