<svg xmlns="http://www.w3.org/2000/svg" xmlns:xlink="http://www.w3.org/1999/xlink" viewBox="0 0 480.58 440.37"><defs><style>.cls-1,.cls-4{fill:none;}.cls-2,.cls-24,.cls-35{opacity:0.46;}.cls-3,.cls-6{fill:#bdd9ff;}.cls-4{stroke:#708cf5;stroke-linecap:round;stroke-miterlimit:10;stroke-width:2px;}.cls-27,.cls-4{opacity:0.43;}.cls-5{opacity:0.51;}.cls-32,.cls-6{opacity:0.31;}.cls-20,.cls-7{fill:#4268ff;}.cls-8{fill:#090909;}.cls-15,.cls-26,.cls-31,.cls-32,.cls-33,.cls-35,.cls-9{fill:#fff;}.cls-10{fill:#ff9c9c;}.cls-11,.cls-17,.cls-18{fill:#ff6969;}.cls-12{fill:#08072b;}.cls-13{fill:#161333;}.cls-14{opacity:0.18;}.cls-15,.cls-21{opacity:0.19;}.cls-16,.cls-24{fill:#5353b8;}.cls-17{opacity:0.36;}.cls-18{opacity:0.6;}.cls-19,.cls-22{opacity:0.99;}.cls-20{opacity:0.75;}.cls-22,.cls-23{fill:#957af6;}.cls-25{clip-path:url(#clip-path);}.cls-26{opacity:0.25;}.cls-28{clip-path:url(#clip-path-2);}.cls-29{clip-path:url(#clip-path-3);}.cls-30{clip-path:url(#clip-path-4);}.cls-31{opacity:0.16;}.cls-33,.cls-34{opacity:0.27;}</style><clipPath id="clip-path"><path class="cls-1" d="M63.09,61.35a21.79,21.79,0,0,0-9.41,15.06,22.36,22.36,0,0,0-.21,2.94,21.73,21.73,0,0,0,2,9.14,23,23,0,0,0,1.65,3l.15.22a21.86,21.86,0,0,0,39-5.66,22.17,22.17,0,0,0,.75-3.2,21.93,21.93,0,0,0-.6-9.48,21.62,21.62,0,0,0-2.89-6.14A21.86,21.86,0,0,0,63.09,61.35Z"/></clipPath><clipPath id="clip-path-2"><path class="cls-1" d="M405.46,294.3a14.86,14.86,0,0,0-4.09,20.48l.1.15A14.86,14.86,0,0,0,428,311.08a16.27,16.27,0,0,0,.51-2.17,14.86,14.86,0,0,0-23-14.61Z"/></clipPath><clipPath id="clip-path-3"><path class="cls-1" d="M405.61,111.21a26.41,26.41,0,0,0-18.84,10.33,26.81,26.81,0,0,0-2,3,26.47,26.47,0,0,0-3.35,10.8,27,27,0,0,0,0,4.12c0,.11,0,.21,0,.32a26.43,26.43,0,0,0,44.44,17.08,24.92,24.92,0,0,0,2.69-2.93,26.43,26.43,0,0,0,5-10.34,25.2,25.2,0,0,0,.56-3.37,26.73,26.73,0,0,0,0-4.82A26.44,26.44,0,0,0,405.61,111.21Z"/></clipPath><clipPath id="clip-path-4"><path class="cls-1" d="M20.39,331.09a10.69,10.69,0,0,0-1.77,8.54A11,11,0,0,0,19,341a10.71,10.71,0,0,0,2.46,3.88A10.26,10.26,0,0,0,22.75,346l.1.08a10.74,10.74,0,0,0,17-9.24,12.42,12.42,0,0,0-.2-1.61A10.88,10.88,0,0,0,37.75,331a12.92,12.92,0,0,0-.9-1.06,11.43,11.43,0,0,0-1.48-1.28A10.74,10.74,0,0,0,20.39,331.09Z"/></clipPath></defs><g id="Layer_2" data-name="Layer 2"><g id="BACKGROUND"><g class="cls-2"><path class="cls-3" d="M474.33,304.2c2.4-12.91,2-26.68-.23-39.63-4.27-25.24-14.53-49.77-31.41-69-18-20.52-39.18-32.23-49.37-58.92-5.95-15.57-9.53-32.07-16.87-47C364.09,64.34,341.2,44.75,314.84,35s-55.92-10-82.9-2.07c-42.09,12.35-73.83,45.1-73.06,89.7.27,15.64-1.24,33.8-14.13,42.66-8,5.51-18.35,5.79-28,7C21.06,183.89-43.33,310.07,35.07,381.68c30.27,27.64,73.51,38.71,114.27,34.38,37.9-4,69.13-26.14,102.45-42.48C291,354.33,325.33,354.8,368,359.33c32.06,3.4,68.8,2.19,90.52-21.64C467.09,328.33,472,316.66,474.33,304.2Z"/></g><g class="cls-2"><path class="cls-3" d="M413.79,287.29a84.79,84.79,0,0,0-.18-29.21c-3.15-18.6-10.7-36.68-23.14-50.87-13.27-15.12-28.88-23.75-36.39-43.42-4.39-11.47-7-23.63-12.43-34.66-9.11-18.62-26-33-45.41-40.26s-41.21-7.36-61.1-1.52c-31,9.09-54.41,33.24-53.84,66.11.2,11.52-.92,24.91-10.42,31.43-5.9,4.06-13.51,4.27-20.63,5.14-70.52,8.59-118,101.58-60.19,154.36,22.3,20.37,54.17,28.53,84.21,25.34,27.93-3,50.95-19.26,75.51-31.31,28.92-14.19,54.19-13.84,85.66-10.5,23.63,2.5,50.71,1.61,66.71-15.95C408.44,305.07,412.09,296.47,413.79,287.29Z"/></g><path class="cls-4" d="M287.61,210.09C187.08,250.32,240.49,121,119.26,176.6c-60.71,27.85-85.29-38.53-42.4-90"/><path class="cls-4" d="M444,278.34c-43.63,99.11-96-30.65-143.67,93.93-23.86,62.38-87.88,32.19-93.29-34.61"/><g class="cls-5"><circle class="cls-6" cx="15.16" cy="77.91" r="15.16" transform="translate(-50.65 33.54) rotate(-45)"/><path class="cls-3" d="M149.5,60.6a12.31,12.31,0,1,1-12.31-12.31A12.31,12.31,0,0,1,149.5,60.6Z"/><circle class="cls-6" cx="422.66" cy="38.72" r="15.16" transform="translate(316.74 449.72) rotate(-80.78)"/><path class="cls-3" d="M480.58,115.18a10.32,10.32,0,1,1-10.32-10.32A10.32,10.32,0,0,1,480.58,115.18Z"/><circle class="cls-3" cx="267.39" cy="423.56" r="10.32" transform="translate(-206.27 586.48) rotate(-76.72)"/></g></g><g id="OBJECTS"><path class="cls-7" d="M326.94,401.8l-1.6,3.71-9.58,21.28A1.68,1.68,0,0,0,318,429L353.27,413a1.85,1.85,0,0,0,.91-2.48l-7.34-16.61Z"/><path class="cls-8" d="M315.76,426.79l.34-.74a1.6,1.6,0,0,0,1.21-.05l35.29-16.06a1.78,1.78,0,0,0,.92-.95l.66,1.48a1.85,1.85,0,0,1-.91,2.48L318,429A1.68,1.68,0,0,1,315.76,426.79Z"/><path class="cls-9" d="M320.8,424.78a.49.49,0,0,1-.45-.3.49.49,0,0,1,.25-.66l32.91-14.77a.49.49,0,0,1,.66.25.5.5,0,0,1-.25.66L321,424.73A.54.54,0,0,1,320.8,424.78Z"/><path class="cls-9" d="M342.69,408.45a3.23,3.23,0,0,1-.69-.07,3.68,3.68,0,0,1-2.37-1.54h0a3.7,3.7,0,1,1,6.69-1.41,3.71,3.71,0,0,1-3.63,3Zm0-6.4a2.7,2.7,0,0,0-2.65,2.2,2.71,2.71,0,0,0,.42,2h0a2.7,2.7,0,0,0,4.46-3A2.71,2.71,0,0,0,342.68,402.05Z"/><path class="cls-9" d="M329.73,408a.45.45,0,0,1-.2,0l-4.4-1.94a.5.5,0,0,1-.25-.66.49.49,0,0,1,.66-.25l4.39,1.94a.49.49,0,0,1,.26.66A.51.51,0,0,1,329.73,408Z"/><path class="cls-9" d="M328.3,411.33a.46.46,0,0,1-.2-.05l-4.4-1.94a.5.5,0,0,1,.41-.91l4.39,1.94a.5.5,0,0,1,.26.66A.52.52,0,0,1,328.3,411.33Z"/><path class="cls-9" d="M327,414.59a.52.52,0,0,1-.21,0l-4.39-1.94a.49.49,0,0,1-.25-.66.48.48,0,0,1,.65-.25l4.4,1.94a.5.5,0,0,1-.2.95Z"/><path class="cls-8" d="M388.88,360.45l-37.33-46.94,9.29-22.59a41.52,41.52,0,0,0,2.54-22.69l-2.26-13.33-31.62,1.6-.88,3.11-16.75-3.55-24.95,46.09a29,29,0,0,0-.72,26.23l35.24,74.51a1.86,1.86,0,0,0,2.4.92l24.7-10.48a2.23,2.23,0,0,0,1.19-2.93l-21-49.9,38,43.92a2,2,0,0,0,3,0l19.06-21.36A2.06,2.06,0,0,0,388.88,360.45Z"/><path class="cls-7" d="M372.46,381.61l.26,4L373.83,409a1.68,1.68,0,0,0,3,1L401,379.63a1.86,1.86,0,0,0-.32-2.63l-14.06-11.48Z"/><path class="cls-8" d="M398.63,377.77a1.84,1.84,0,0,0-.32-2.62l-11.74-9.59,0,0L400.67,377a1.86,1.86,0,0,1,.32,2.63l-24.18,30.3a1.68,1.68,0,0,1-3-1l0-.42a1.59,1.59,0,0,0,.64-.47Z"/><path class="cls-9" d="M377.18,404.94a.51.51,0,0,1-.39-.82L399.43,376a.5.5,0,0,1,.78.63l-22.64,28.08A.52.52,0,0,1,377.18,404.94Z"/><path class="cls-9" d="M387.83,380.82a3.71,3.71,0,0,1-1.77-.46,3.71,3.71,0,0,1-1.47-5,3.7,3.7,0,1,1,4.29,5.32A3.82,3.82,0,0,1,387.83,380.82Zm0-6.41a2.58,2.58,0,0,0-.77.12,2.58,2.58,0,1,0,.77-.12Z"/><path class="cls-9" d="M372.72,386.15a.5.5,0,0,1,0-1l4.8-.26a.46.46,0,0,1,.52.47.49.49,0,0,1-.47.52l-4.79.26Z"/><path class="cls-9" d="M373,389.81a.5.5,0,0,1-.5-.47.5.5,0,0,1,.47-.53l4.8-.26a.48.48,0,0,1,.53.47.51.51,0,0,1-.48.53l-4.79.26Z"/><path class="cls-9" d="M373.29,393.31a.5.5,0,0,1-.5-.47.5.5,0,0,1,.47-.53l4.8-.26a.47.47,0,0,1,.52.48.49.49,0,0,1-.47.52l-4.79.26Z"/><path class="cls-9" d="M373.88,383.22c-1.56,0-5-3.25-5.18-3.51a2.16,2.16,0,1,1,3.31-2.79c.52.62,2.75,4.89,2.54,5.82l-.06.25-.28.17A.88.88,0,0,1,373.88,383.22Zm-3.52-6.06a1.12,1.12,0,0,0-.75.27,1.16,1.16,0,0,0-.14,1.63,17.91,17.91,0,0,0,4,3.08,24.65,24.65,0,0,0-2.24-4.57A1.15,1.15,0,0,0,370.36,377.16Z"/><path class="cls-9" d="M368.89,386.78a2.09,2.09,0,0,1-.91-.21,2.15,2.15,0,0,1-1.05-2.86,2.1,2.1,0,0,1,1.22-1.12h0c.62-.23,4.52-1.1,5.77-.5a.87.87,0,0,1,.49.51c.37,1.07-4.53,3.95-4.77,4A2.21,2.21,0,0,1,368.89,386.78Zm-.4-3.25a1.16,1.16,0,1,0,.8,2.17,21.2,21.2,0,0,0,4-2.83,16.37,16.37,0,0,0-4.79.66Z"/><path class="cls-9" d="M329.15,341.48a.49.49,0,0,1-.38-.18l-10.1-11.66a22,22,0,0,1-4.55-20.46l12.4-40.86a.5.5,0,0,1,1,.29l-12.4,40.85A21,21,0,0,0,319.43,329l10.1,11.67a.49.49,0,0,1,0,.7A.48.48,0,0,1,329.15,341.48Z"/><path class="cls-8" d="M366.84,181.79A30.5,30.5,0,0,0,355.72,173c-9.53-4.81-12-8.24-12.15-19a29.28,29.28,0,0,0-1.79-10.56,15.56,15.56,0,0,0-17.59-11L316,134.07c0-.17,0-.26,0-.26a11.2,11.2,0,0,0-15.38,4.86c-2.94,6.18,1.77,16.57,1.77,16.57.89-1.62,4.51-3.26,6.24-4.15,3.34-1.72,1.9-5.1,3.92-7.09a11.32,11.32,0,0,0,2.65-4.08,17.16,17.16,0,0,0,1.08,3.22c-1.62,4.09-1.12,9.15,2.81,13.85,1.17,1.4,2.88,2.8,4.62,2.27,1.09-.33,1.88-1.35,3-1.64,2.64-.71,4.28,3.2,3.28,5.75s-3.3,4.46-4.07,7.09a6.88,6.88,0,0,0,4.66,8.24c2.21.59,4.72,0,6.7,1.16,2.45,1.39,3,4.74,2.48,7.5s-1.81,5.38-2,8.18c-.4,5.38,3.58,10.5,8.65,12.32s10.88.68,15.5-2.11c3.9-2.36,7.18-6,8.23-10.46C371.15,190.64,369.66,185.64,366.84,181.79Z"/><path class="cls-10" d="M338.53,158a5.58,5.58,0,0,0-5.86-5.25l-2.27.12v-.35a15.76,15.76,0,0,1-15.25-12.55A11.32,11.32,0,0,1,312.5,144c-2,2-6.17,2.85-9.52,4.58L302.76,165a12.5,12.5,0,0,0,10.5,12.49l1.32,6.36c1.05,5.06,6.37,8.28,11.83,7.15l.22,0c5.46-1.13,10.14-5.11,9.09-10.17L331.57,164l1.71-.09a5.58,5.58,0,0,0,5.25-5.86Z"/><path class="cls-11" d="M333.69,160.29a.53.53,0,0,1-.24-.06l-1.91-1a.49.49,0,0,1-.25-.34.47.47,0,0,1,.08-.4l1.74-2.33a.51.51,0,0,1,.7-.1.49.49,0,0,1,.1.7l-1.39,1.86,1.4.74a.5.5,0,0,1,.21.68A.49.49,0,0,1,333.69,160.29Z"/><path class="cls-8" d="M303.25,155.52a1.09,1.09,0,0,0,.94,1.2,1.08,1.08,0,0,0,.26-2.15A1.09,1.09,0,0,0,303.25,155.52Z"/><path class="cls-8" d="M312.06,155.35a1.17,1.17,0,0,0,1.32,1,1.18,1.18,0,1,0-.31-2.34A1.18,1.18,0,0,0,312.06,155.35Z"/><path class="cls-9" d="M309.81,167.5c4.86,2.34,6.1-1.24,6.4-3.63a.94.94,0,0,0-1.43-.9l-5.06,3.15A.79.79,0,0,0,309.81,167.5Z"/><path class="cls-11" d="M313.7,171.2a.26.26,0,0,0,.15,0,1.88,1.88,0,0,1,2.13.26.23.23,0,0,0,.31-.33,2.39,2.39,0,0,0-2.65-.33.23.23,0,0,0-.1.3A.24.24,0,0,0,313.7,171.2Z"/><path class="cls-8" d="M318.48,150.34a3.53,3.53,0,0,1-1.42-.12c-.5-.11-1-.21-1.44-.28s-.94-.14-1.45-.19a3.42,3.42,0,0,1-1.38-.32c-.35-.22-.43-.7.1-1.19a3.94,3.94,0,0,1,3.15-.67,3.85,3.85,0,0,1,2.75,1.61C319.12,149.81,318.88,150.24,318.48,150.34Z"/><path class="cls-8" d="M303.2,149.9a2.1,2.1,0,0,0,1-.08c.34-.09.68-.16,1-.21l1-.14a2,2,0,0,0,.95-.24c.24-.17.28-.55-.1-.94a2.54,2.54,0,0,0-2.19-.54A2.49,2.49,0,0,0,303,149C302.74,149.49,302.91,149.82,303.2,149.9Z"/><path class="cls-10" d="M314.51,156.35a1.68,1.68,0,0,0-2.06.27"/><path class="cls-11" d="M312.45,157.12a.47.47,0,0,1-.35-.15.5.5,0,0,1,0-.71,2.17,2.17,0,0,1,2.68-.33.5.5,0,0,1,.16.69.51.51,0,0,1-.69.16,1.18,1.18,0,0,0-1.45.19A.47.47,0,0,1,312.45,157.12Z"/><path class="cls-10" d="M305,156.5a.94.94,0,0,0-1.21.25"/><path class="cls-11" d="M303.77,157.25a.54.54,0,0,1-.32-.11.52.52,0,0,1-.07-.71,1.44,1.44,0,0,1,1.85-.36.51.51,0,0,1,.18.69.51.51,0,0,1-.68.18.43.43,0,0,0-.58.13A.48.48,0,0,1,303.77,157.25Z"/><path class="cls-11" d="M313.26,177.46s10.18-.14,11.84-4.16h0s.8,6.41-10.66,9.81Z"/><path class="cls-10" d="M307.79,155.38l.33,2.48a1.73,1.73,0,0,1-1.49,1.95h0a.87.87,0,0,0-.74,1h0a2.8,2.8,0,0,0,3.15,2.41l1-.14"/><path class="cls-11" d="M308.66,163.71a3.29,3.29,0,0,1-3.26-2.86,1.36,1.36,0,0,1,1.17-1.54,1.23,1.23,0,0,0,1.05-1.38l-.33-2.48a.5.5,0,1,1,1-.14l.34,2.49a2.24,2.24,0,0,1-1.92,2.51.36.36,0,0,0-.31.41,2.25,2.25,0,0,0,.88,1.52,2.31,2.31,0,0,0,1.7.45l1-.13a.5.5,0,0,1,.56.42.51.51,0,0,1-.43.57l-1,.13A3.25,3.25,0,0,1,308.66,163.71Z"/><path class="cls-9" d="M334.24,166.29a2.58,2.58,0,1,1,2.57-3h0a2.59,2.59,0,0,1-.48,1.92,2.54,2.54,0,0,1-1.69,1Zm0-4.17a1,1,0,0,0-.24,0,1.53,1.53,0,0,0-1,.63,1.5,1.5,0,0,0-.29,1.17,1.55,1.55,0,0,0,.62,1,1.58,1.58,0,0,0,2.23-.33,1.6,1.6,0,0,0,.29-1.18h0a1.6,1.6,0,0,0-.63-1A1.54,1.54,0,0,0,334.25,162.12Z"/><path class="cls-12" d="M322.59,154.79l10-2.27a1.33,1.33,0,0,0,.87-1.94l0-.06a1.32,1.32,0,0,0-1.47-.65l-10,2.33a1.33,1.33,0,0,0-1,1.41h0A1.33,1.33,0,0,0,322.59,154.79Z"/><path class="cls-13" d="M304.49,160.24c.85-.28,1.72-.76,2.66-1A8.41,8.41,0,0,1,311,159l1.15.61a7.91,7.91,0,0,0,7.4.07,4.11,4.11,0,0,0,.77-.5,5.53,5.53,0,0,0,1.81-4.38v-.6c-.09-2.92-2.23-5.22-4.77-5.14l-13.5.41c-2.54.08-4.52,2.51-4.43,5.43v.6a6.22,6.22,0,0,0,1.75,4A2.87,2.87,0,0,0,304.49,160.24Z"/><g class="cls-14"><path class="cls-9" d="M305.42,158c.94-.22,1.9-.66,2.87-.8a11.35,11.35,0,0,1,4.43.71c2.48.65,7.28-.06,6.79-3.86a3.82,3.82,0,0,0-3.8-3.25l-10.76.33c-3,.1-5,4.11-2.34,6.33A3,3,0,0,0,305.42,158Z"/></g><polygon class="cls-15" points="303.49 157.98 302.61 157.5 306.43 151.15 307.71 151.09 303.49 157.98"/><polygon class="cls-15" points="309.01 157.19 307.83 157.31 311.59 150.97 312.78 150.93 309.01 157.19"/><path class="cls-10" d="M305.49,188.06l-10.7,16.3-14.05-17.18.1-.16-2.29-2.52-.05-.06a3.09,3.09,0,0,0,.57-1.6l.33-4.4,1.17-6.08a1,1,0,0,0-1-1.23h-.37a2.2,2.2,0,0,0-2.08,1.49l-1.5,4.38-.15.18L266,162.6a1,1,0,0,0-1.36-.2l-.1.08a2.49,2.49,0,0,0-.8,3.07l4.14,9-5,4.48a6,6,0,0,0-1.1,7.64l6.9,11.28,12.33,29.64a16.74,16.74,0,0,0,29.75,2.26l10.76-17.72Z"/><line class="cls-10" x1="294.34" y1="203.82" x2="299.65" y2="210.52"/><path class="cls-11" d="M299.65,211a.51.51,0,0,1-.39-.19l-5.31-6.7a.5.5,0,0,1,.79-.62l5.3,6.69a.5.5,0,0,1-.39.82Z"/><path class="cls-10" d="M267.12,173.74l.06.16,3.42,9.48a2,2,0,0,1-.88,2.4l-.56.32a.63.63,0,0,1-.9-.3l-3.84-8.91a1.63,1.63,0,0,1,.7-2Z"/><path class="cls-11" d="M268.84,186.69a1.14,1.14,0,0,1-1-.69L264,177.09a2.14,2.14,0,0,1,.92-2.66L267.4,173l.25.74,3.42,9.47a2.48,2.48,0,0,1-1.1,3l-.56.33A1.16,1.16,0,0,1,268.84,186.69Zm-2-12.22-1.48.83a1.14,1.14,0,0,0-.49,1.41l3.84,8.9a.13.13,0,0,0,.08.07.15.15,0,0,0,.11,0l.56-.32a1.5,1.5,0,0,0,.66-1.8Z"/><path class="cls-10" d="M264.06,176l.05.15,3.07,8.51a1.78,1.78,0,0,1-.79,2.16l-.5.29a.57.57,0,0,1-.81-.27l-3.45-8a1.47,1.47,0,0,1,.63-1.82Z"/><path class="cls-11" d="M265.6,187.66a1,1,0,0,1-.33,0,1.08,1.08,0,0,1-.65-.59l-3.45-8a2,2,0,0,1,.85-2.46l2.32-1.31.24.72,3.07,8.5a2.28,2.28,0,0,1-1,2.76l-.5.29A1,1,0,0,1,265.6,187.66Zm-1.81-10.95-1.28.72a1,1,0,0,0-.42,1.2l3.45,8,.1,0,.5-.29a1.3,1.3,0,0,0,.57-1.56Z"/><path class="cls-10" d="M261.56,177.7l.05.13,2.78,7.71a1.62,1.62,0,0,1-.71,2l-.46.26a.52.52,0,0,1-.73-.24l-3.13-7.25a1.34,1.34,0,0,1,.58-1.65Z"/><path class="cls-11" d="M263,188.33a1.19,1.19,0,0,1-.32-.05,1,1,0,0,1-.61-.57l-3.12-7.25a1.83,1.83,0,0,1,.78-2.28l2.16-1.22.23.72,2.78,7.69a2.11,2.11,0,0,1-.94,2.56l-.45.26A1,1,0,0,1,263,188.33Zm-1.67-9.9-1.1.62a.83.83,0,0,0-.36,1l3.12,7.24.48-.25a1.12,1.12,0,0,0,.49-1.36Z"/><path class="cls-16" d="M366.87,203.41l-5.37-13a18.69,18.69,0,0,0-18.75-11.53l-11.15,1.62c-.44.05-.88.12-1.32.2l-.3,0v0a16,16,0,0,0-1.63.38l-.62.17-16.53,3.43a17.35,17.35,0,0,0-9.94,6.05l-5.91,8.61a2.26,2.26,0,0,0,.15,2.77l10.94,14.32-4.61,39.21c-.56,1.91-1.68,10.55.27,10.13l59.77-6.7a2.84,2.84,0,0,0,2.46-3.34l-8.64-45.39,9.31-2.93a3.61,3.61,0,0,0,.57-.24A3,3,0,0,0,366.87,203.41Z"/><path class="cls-9" d="M340.24,219.09a.49.49,0,0,1-.49-.4l-1.05-5.07-1.8.14a1.92,1.92,0,0,1-1.61-.32,2.5,2.5,0,0,1-.93-1.86l-.61-14a.5.5,0,0,1,.47-.53.52.52,0,0,1,.53.48l.6,14a1.5,1.5,0,0,0,.53,1.11,1,1,0,0,0,.86.15l2.76-.23,1.23,5.94a.51.51,0,0,1-.39.59Z"/><path class="cls-9" d="M306.23,224.27h-.05a.5.5,0,0,1-.45-.55l2.13-20.07a.5.5,0,0,1,1,.11l-2.13,20.06A.51.51,0,0,1,306.23,224.27Z"/><path class="cls-10" d="M370.24,215.43l-4.68-8.25a3.61,3.61,0,0,1-.57.24l-25.47,5.23.68,4.36L312.54,222A19.46,19.46,0,0,0,309,220.5s-8.47-1.6-11.41-1.59a3,3,0,0,0-.94.11,1,1,0,0,0-.65.63,1.36,1.36,0,0,0,.34,1.14,10.59,10.59,0,0,0,2.93,2.42c-1.06.31-2.21.64-3.46,1-2.6.92-7.06,1.9-5.66,5.22.58,1.11,1.59,1.07,2.56.7-1.26.78-2.29,1.9-1.21,3.39.77,1.5,2.21,1.07,3.54.37-.76.56-1.25,1.28-.69,2.25.79,1.86,2.66,1.5,4.09.7-1.12,1.16,1.05,2.8,3.11,2.27l13.91-3.19,38.36,4.4A16.72,16.72,0,0,0,370.24,215.43Z"/><path class="cls-17" d="M299.23,223.21l6.13-1.25s-6.94-.42-8-.1Z"/><path class="cls-11" d="M292.14,230.81a.5.5,0,0,1-.27-.92,36.5,36.5,0,0,1,4.18-1.38.5.5,0,0,1,.27,1,36.93,36.93,0,0,0-3.92,1.27A.48.48,0,0,1,292.14,230.81Z"/><path class="cls-11" d="M294.72,234.51a.49.49,0,0,1-.48-.36.5.5,0,0,1,.33-.62l3.25-1a.5.5,0,0,1,.29,1l-3.25,1Z"/><path class="cls-11" d="M298.41,237.32a.5.5,0,0,1-.48-.34.5.5,0,0,1,.32-.63l1.73-.57a.5.5,0,0,1,.64.32.51.51,0,0,1-.32.63l-1.74.57Z"/><line class="cls-10" x1="339.52" y1="217.13" x2="347.94" y2="215.76"/><path class="cls-11" d="M339.51,217.63a.5.5,0,0,1-.07-1l8.43-1.38a.51.51,0,0,1,.57.42.5.5,0,0,1-.41.57l-8.43,1.38Z"/><path class="cls-17" d="M293.82,232.69a3.56,3.56,0,0,1-2.51.56,1.65,1.65,0,0,0,.15.25,1.63,1.63,0,0,0,1.49,1A1.68,1.68,0,0,1,293.82,232.69Z"/><path class="cls-18" d="M296,219.65a1,1,0,0,1,.65-.63,3,3,0,0,1,.94-.11A59.64,59.64,0,0,1,306,220a3.42,3.42,0,0,0,.13-1,77.81,77.81,0,0,0-9.76-1.29,3,3,0,0,0-.94.11,1,1,0,0,0-.65.63,1.36,1.36,0,0,0,.34,1.14,6.93,6.93,0,0,0,1.21,1.21l0,0A1.36,1.36,0,0,1,296,219.65Z"/><path class="cls-18" d="M295.77,224.19c1.25-.34,2.4-.67,3.46-1-.53-.34-1.06-.69-1.56-1.07-1,.28-2,.57-3.08.87-2.59.92-7.06,1.9-5.66,5.22a1.57,1.57,0,0,0,1.08.89C289,226,293.25,225.08,295.77,224.19Z"/><path class="cls-17" d="M292.67,230.11a1.93,1.93,0,0,1-2.28-.29,1.81,1.81,0,0,0-.11,2.5,1.7,1.7,0,0,0,1,.93C290.52,231.88,291.49,230.85,292.67,230.11Z"/><path class="cls-17" d="M295,233.87a4.34,4.34,0,0,1-2.05.63,1.78,1.78,0,0,0,.18.44,2.06,2.06,0,0,0,1.2,1.22.05.05,0,0,1,0,0C293.75,235.15,294.24,234.43,295,233.87Z"/><g class="cls-19"><path class="cls-20" d="M379.17,261c5.55,1.35,11.06,2.89,16.49,4.76a103.14,103.14,0,0,1,15.9,6.82,34.66,34.66,0,0,1,7.3,5.21,11.9,11.9,0,0,1,2.87,4.12,6.36,6.36,0,0,1-.56,5.81,10.9,10.9,0,0,1-3.92,3.47A25.31,25.31,0,0,1,413,293a55,55,0,0,1-8.68,2,121.08,121.08,0,0,1-17.37,1.35c-5.77.08-11.54-.08-17.28-.42a335.82,335.82,0,0,1-34.24-4,340.89,340.89,0,0,1-33.63-7.57c-5.53-1.6-11-3.35-16.44-5.34a127.14,127.14,0,0,1-16-7,61.76,61.76,0,0,1-7.58-4.66,28.83,28.83,0,0,1-3.53-3,13.75,13.75,0,0,1-2.94-4.14,7.52,7.52,0,0,1-.62-2.91,6.37,6.37,0,0,1,.76-3,9.67,9.67,0,0,1,3.89-3.65,29.57,29.57,0,0,1,8.66-2.83,95.46,95.46,0,0,1,17.31-1.28c5.75,0,11.46.39,17.15,1a.46.46,0,0,1,.42.51.47.47,0,0,1-.47.42c-2.84,0-5.69,0-8.53.1s-5.67.19-8.5.38a98.35,98.35,0,0,0-16.64,2.32,26.87,26.87,0,0,0-7.42,2.79,5.81,5.81,0,0,0-2.21,2.17,2.54,2.54,0,0,0,.16,2.3,10.32,10.32,0,0,0,2.14,2.67,25.78,25.78,0,0,0,3.07,2.42,56.87,56.87,0,0,0,7.13,4,188.78,188.78,0,0,0,31.71,11.15c10.89,2.94,22,5.34,33.1,7.23s22.36,3.44,33.61,4.33,22.58,1.26,33.61.06a51.11,51.11,0,0,0,8-1.53,21.79,21.79,0,0,0,3.61-1.38,7.19,7.19,0,0,0,2.57-2,2.47,2.47,0,0,0,.35-2.36,8.49,8.49,0,0,0-1.87-2.93,32,32,0,0,0-6.33-5,107.17,107.17,0,0,0-15-7.68c-5.21-2.24-10.53-4.26-15.91-6.16a.19.19,0,0,1-.12-.25A.19.19,0,0,1,379.17,261Z"/><path class="cls-7" d="M363.1,247.16c6.45-1.28,12.95-2.38,19.51-3.14a152.36,152.36,0,0,1,19.84-1.12,66.13,66.13,0,0,1,10.06.92,30.19,30.19,0,0,1,5.06,1.32,13.38,13.38,0,0,1,4.91,2.9,8.48,8.48,0,0,1,1,1.24,7.19,7.19,0,0,1,.76,1.55,7,7,0,0,1,.37,1.71,8.64,8.64,0,0,1-.05,1.69,12.11,12.11,0,0,1-2.49,5.36,25.62,25.62,0,0,1-1.75,2.08c-.62.62-1.23,1.26-1.88,1.83a48.58,48.58,0,0,1-4,3.26A113.39,113.39,0,0,1,397.19,277c-6,2.94-12.07,5.59-18.24,8a359.11,359.11,0,0,1-37.74,12.33,388.61,388.61,0,0,1-38.83,8.32c-6.55,1-13.14,1.81-19.76,2.36a155.14,155.14,0,0,1-20,.52,79.38,79.38,0,0,1-10.12-1.08,40.66,40.66,0,0,1-5.09-1.26,18.59,18.59,0,0,1-5-2.46,9.34,9.34,0,0,1-2.24-2.24,6.77,6.77,0,0,1-.81-1.53l-.29-.83c-.06-.29-.1-.58-.15-.87a8,8,0,0,1,.38-3.31,11.71,11.71,0,0,1,1.32-2.65,30.1,30.1,0,0,1,7.53-7.31,81.65,81.65,0,0,1,8.55-5.28q4.39-2.4,8.92-4.42t9.13-3.85c3.08-1.19,6.18-2.31,9.29-3.39a.47.47,0,0,1,.34.88c-3,1.31-6,2.68-8.93,4.11s-5.89,2.87-8.77,4.41a107.38,107.38,0,0,0-16.4,10.35,26.78,26.78,0,0,0-6.3,6.59,8.21,8.21,0,0,0-.81,1.78,3.28,3.28,0,0,0,1.77,4,22.22,22.22,0,0,0,8.37,2.64,72.61,72.61,0,0,0,9.5.72,222.65,222.65,0,0,0,38.68-3.62c12.86-2.12,25.6-5,38.22-8.33A389.51,389.51,0,0,0,377,279.83c6.1-2.27,12.12-4.74,18-7.48A121.75,121.75,0,0,0,411.79,263a46.58,46.58,0,0,0,3.74-2.85c.6-.49,1.13-1,1.7-1.55A20.33,20.33,0,0,0,418.7,257a8.3,8.3,0,0,0,1.82-3.4,3,3,0,0,0-.85-2.79,9.89,9.89,0,0,0-3.44-2.19,26.92,26.92,0,0,0-4.41-1.35,66,66,0,0,0-9.51-1.31,161.22,161.22,0,0,0-19.54,0c-6.54.34-13.08.94-19.61,1.67a.2.2,0,0,1-.22-.18A.21.21,0,0,1,363.1,247.16Z"/></g><path class="cls-7" d="M78.88,290l-4,.69L52,295.06a1.68,1.68,0,0,1-1.63-2.68l23.85-30.56a1.86,1.86,0,0,1,2.63-.3l14.43,11Z"/><path class="cls-8" d="M76.54,263.68a1.84,1.84,0,0,1,2.62-.3l12,9.2,0-.05-14.43-11a1.86,1.86,0,0,0-2.63.3L50.33,292.38A1.68,1.68,0,0,0,52,295.06l.41-.08a1.72,1.72,0,0,1,.32-.74Z"/><path class="cls-9" d="M55.58,291.25a.5.5,0,0,1-.3-.11.5.5,0,0,1-.09-.7l22-28.55a.5.5,0,0,1,.79.61L56,291.05A.51.51,0,0,1,55.58,291.25Z"/><path class="cls-9" d="M79.69,277.73h-.2a3.69,3.69,0,0,1-2.55-1.22,3.7,3.7,0,0,1,.26-5.22,3.7,3.7,0,1,1,5,5.49A3.67,3.67,0,0,1,79.69,277.73Zm0-6.39a2.73,2.73,0,0,0-1.81.69,2.7,2.7,0,0,0,3.62,4,2.7,2.7,0,0,0-1.81-4.7Z"/><path class="cls-9" d="M74.89,291.22a.51.51,0,0,1-.5-.41l-.86-4.73a.5.5,0,0,1,.41-.58.5.5,0,0,1,.58.4l.86,4.73a.5.5,0,0,1-.4.58Z"/><path class="cls-9" d="M71.27,291.82a.51.51,0,0,1-.49-.41l-.86-4.72a.5.5,0,0,1,.4-.59.52.52,0,0,1,.59.41l.86,4.72a.51.51,0,0,1-.41.59Z"/><path class="cls-9" d="M67.79,292.33a.49.49,0,0,1-.49-.41l-.86-4.73a.5.5,0,1,1,1-.18l.86,4.73a.5.5,0,0,1-.4.58Z"/><path class="cls-8" d="M180.6,264.87l-10.4-34.66c0-.08-61.75-16.11-62-14.83L96.47,265.3l-6.93-.44a2.07,2.07,0,0,0-2,1.18L73.13,296.25a2.08,2.08,0,0,0,1.89,3l13.54-.1-9.84,42.05a1.15,1.15,0,0,0,.79,1.37L108,351a2.29,2.29,0,0,0,2.84-1.51l16-50.63,29.87-.22A25.51,25.51,0,0,0,180.6,264.87Zm-44.06,3,2.27-7.2,5,7.66Z"/><path class="cls-9" d="M124.71,305.9l-.16,0a.51.51,0,0,1-.32-.63l22.07-67.81a.5.5,0,1,1,.95.31l-22.07,67.8A.49.49,0,0,1,124.71,305.9Z"/><path class="cls-9" d="M148.37,276a.51.51,0,0,1-.42-.23l-9.26-14.37a.5.5,0,0,1,.84-.54l9.26,14.37a.5.5,0,0,1-.42.77Z"/><path class="cls-7" d="M103.5,349.45l2,3.55L117,373.26a1.68,1.68,0,0,1-2,2.42L78.35,363.07a1.85,1.85,0,0,1-1.13-2.39l5.71-17.23Z"/><path class="cls-8" d="M117,373.26l-.4-.7a1.62,1.62,0,0,1-1.21.06L78.74,360a1.84,1.84,0,0,1-1-.85l-.5,1.52a1.85,1.85,0,0,0,1.13,2.39L115,375.68A1.68,1.68,0,0,0,117,373.26Z"/><path class="cls-9" d="M111.76,371.74l-.16,0L77.42,360.16a.5.5,0,0,1,.33-1l34.17,11.56a.5.5,0,0,1-.16,1Z"/><path class="cls-9" d="M88.11,357.59a3.66,3.66,0,1,1,1-.14A3.67,3.67,0,0,1,88.11,357.59Zm0-6.39a2.7,2.7,0,0,0-1.31,5.06,2.69,2.69,0,0,0,3.66-1.06,2.71,2.71,0,0,0-1-3.67A2.65,2.65,0,0,0,88.12,351.2Z"/><path class="cls-9" d="M101.26,355.85a.5.5,0,0,1-.24-.93l4.19-2.36a.5.5,0,1,1,.49.87l-4.19,2.36A.57.57,0,0,1,101.26,355.85Z"/><path class="cls-9" d="M103,359.07a.5.5,0,0,1-.44-.25.51.51,0,0,1,.19-.69l4.19-2.35a.5.5,0,0,1,.68.19.49.49,0,0,1-.19.68L103.25,359A.5.5,0,0,1,103,359.07Z"/><path class="cls-9" d="M104.62,362.2a.5.5,0,0,1-.44-.25.51.51,0,0,1,.19-.69l4.19-2.35a.5.5,0,0,1,.68.19.49.49,0,0,1-.19.68l-4.19,2.36A.5.5,0,0,1,104.62,362.2Z"/><path class="cls-9" d="M102.61,351.73l-.26-.21c-.68-.67-1.09-5.48-1-6.27h0a2.15,2.15,0,0,1,2.43-1.85,2.15,2.15,0,0,1,1.85,2.43c-.05.36-1.35,5.64-2.79,5.86Zm.46-.9h0Zm-.71-5.45a24.39,24.39,0,0,0,.57,5.08,18.28,18.28,0,0,0,1.73-4.77,1.16,1.16,0,0,0-2.3-.31Z"/><path class="cls-9" d="M107.05,352.23c-1.78,0-4.49-.15-4.67-.9a1,1,0,0,1,.14-.7c.73-1.15,4.52-2.54,5.15-2.67h0a2.16,2.16,0,1,1,.91,4.22A15.21,15.21,0,0,1,107.05,352.23ZM103.54,351a21.6,21.6,0,0,0,4.83.24,1.16,1.16,0,1,0-.49-2.26h0A15.44,15.44,0,0,0,103.54,351Zm4.23-2.51h0Z"/><path class="cls-8" d="M137.92,125.87c1,2.07,1.72,3.43,1.72,3.43l.84-3.64-2.28.2Z"/><path class="cls-10" d="M167.34,103.76c0-.17-.07-.34-.11-.51l-.1.15c-1.87-6.19-9.35-3.71-9.35-3.71-6.05,3.49-10.65.82-10.65.82l.05,1.91a36.9,36.9,0,0,1-1.33,10.83l-8.7.76a5.92,5.92,0,0,0-5.33,6.38v.13a5.88,5.88,0,0,0,6.09,5.35h.28l1.81-.16-1.83,18.09c-.34,5.44,5.16,8.9,11,9.26h.25c5.87.36,10.95-3.8,11.29-9.25l.42-6.85a13.19,13.19,0,0,0,9.09-14.64Z"/><path class="cls-8" d="M145.85,113.25a36.9,36.9,0,0,0,1.33-10.83l-.05-1.91s4.6,2.67,10.65-.82c0,0,7.48-2.48,9.35,3.71l.1-.15c1-1.42,8.32-12.72-1.24-15.82C155.77,84.11,154.76,91,154.76,91s-3.1-7.47-11.55-3.5-5.29,9.48-5.29,9.48-8.34,3.72-7.63,9.85c.24,2.08,1.51,5.55,3,9.16a5.84,5.84,0,0,1,3.83-1.93Z"/><path class="cls-11" d="M137.15,122.08a.5.5,0,0,1-.29-.9l1.38-1-1.76-1.75a.5.5,0,0,1,0-.71.51.51,0,0,1,.71,0l2.17,2.17a.51.51,0,0,1,.14.39.49.49,0,0,1-.2.37L137.45,122A.53.53,0,0,1,137.15,122.08Z"/><path class="cls-8" d="M167.79,113.4a1.14,1.14,0,0,1-2.2.6,1.13,1.13,0,0,1,.8-1.4A1.15,1.15,0,0,1,167.79,113.4Z"/><path class="cls-8" d="M158.56,114.55a1.26,1.26,0,0,1-1.24,1.26,1.25,1.25,0,1,1,1.24-1.26Z"/><path class="cls-11" d="M159.77,130.5a.22.22,0,0,1-.16,0,2,2,0,0,0-2.19.6.24.24,0,1,1-.37-.3,2.54,2.54,0,0,1,2.72-.75.25.25,0,0,1,.15.31A.23.23,0,0,1,159.77,130.5Z"/><path class="cls-8" d="M151.81,108a3.68,3.68,0,0,0,1.48-.26c.52-.15,1-.3,1.49-.41s1-.23,1.51-.32a3.6,3.6,0,0,0,1.43-.47c.35-.26.39-.77-.21-1.24a4.17,4.17,0,0,0-3.38-.43,4,4,0,0,0-2.74,1.94C151.08,107.5,151.37,107.93,151.81,108Z"/><path class="cls-8" d="M167.86,106.21a2.15,2.15,0,0,1-1,0c-.36-.06-.73-.11-1-.14l-1.07,0a2.22,2.22,0,0,1-1-.18c-.26-.16-.35-.55,0-1a2.67,2.67,0,0,1,2.26-.76,2.6,2.6,0,0,1,2.07,1.15C168.31,105.73,168.15,106.11,167.86,106.21Z"/><path class="cls-10" d="M156.14,116a1.78,1.78,0,0,1,2.2,0"/><path class="cls-11" d="M156.14,116.47a.49.49,0,0,1-.38-.18.5.5,0,0,1,.05-.7,2.3,2.3,0,0,1,2.83,0,.51.51,0,0,1,.1.7.5.5,0,0,1-.7.1,1.26,1.26,0,0,0-1.58,0A.54.54,0,0,1,156.14,116.47Z"/><path class="cls-10" d="M166.13,114.7a1,1,0,0,1,1.3.07"/><path class="cls-11" d="M167.43,115.27a.46.46,0,0,1-.33-.13.49.49,0,0,0-.66,0,.51.51,0,0,1-.7-.09.5.5,0,0,1,.08-.7,1.49,1.49,0,0,1,2,.1.5.5,0,0,1,0,.71A.49.49,0,0,1,167.43,115.27Z"/><path class="cls-11" d="M161.17,137s-10.67,1.39-13-2.57h0s.13,6.82,12.63,8.66Z"/><path class="cls-10" d="M163.57,113.07l0,2.65a1.82,1.82,0,0,0,1.84,1.81h0a.92.92,0,0,1,.93.91h0a3,3,0,0,1-2.93,3h-1.07"/><path class="cls-11" d="M162.37,121.93a.5.5,0,0,1,0-1h1.07a2.44,2.44,0,0,0,1.73-.73,2.48,2.48,0,0,0,.71-1.75.41.41,0,0,0-.13-.29.4.4,0,0,0-.29-.12h0a2.33,2.33,0,0,1-2.33-2.31l0-2.64a.51.51,0,0,1,.5-.51h0a.5.5,0,0,1,.5.5l0,2.65a1.33,1.33,0,0,0,1.33,1.31h0a1.35,1.35,0,0,1,1,.41,1.41,1.41,0,0,1,.43,1,3.45,3.45,0,0,1-3.43,3.49Z"/><path class="cls-10" d="M160.35,124.15a1.92,1.92,0,1,1-1.89-1.93A1.92,1.92,0,0,1,160.35,124.15Z"/><path class="cls-11" d="M158.44,126.55h0a2.41,2.41,0,0,1-1.7-.73,2.41,2.41,0,0,1,0-3.42,2.42,2.42,0,1,1,1.69,4.15Zm0-3.83a1.42,1.42,0,0,0,0,2.83,1.42,1.42,0,0,0,1.43-1.4,1.41,1.41,0,0,0-1.39-1.43Z"/><path class="cls-13" d="M169.24,117.46c-1-.17-2-.56-3.11-.7a9.62,9.62,0,0,0-4.26.42l-1.18.85a9,9,0,0,1-8.17,1.25,5.58,5.58,0,0,1-.93-.42,6.06,6.06,0,0,1-2.69-4.48l-.08-.66c-.36-3.19,1.64-6,4.46-6.35l15-1.69c2.82-.32,5.4,2,5.76,5.2l.07.66a6.8,6.8,0,0,1-1.31,4.58A3.24,3.24,0,0,1,169.24,117.46Z"/><g class="cls-21"><path class="cls-9" d="M167.87,115.21c-1.09-.09-2.22-.42-3.31-.42-1.68,0-3.23.83-4.78,1.48-2.65,1.1-8.07,1.09-8.13-3.12a4.27,4.27,0,0,1,3.69-4.14l12-1.34c3.34-.38,6.19,3.67,3.58,6.51A3.36,3.36,0,0,1,167.87,115.21Z"/></g><path class="cls-12" d="M148,114.69l-10.83-.87a1.41,1.41,0,0,1-1.21-1.9l0-.06a1.42,1.42,0,0,1,1.44-.91l10.81.93a1.42,1.42,0,0,1,1.29,1.33h0A1.41,1.41,0,0,1,148,114.69Z"/><polygon class="cls-15" points="154.62 116.54 153.54 116.14 157.31 108.79 158.58 108.65 154.62 116.54"/><polygon class="cls-15" points="160.18 116.22 158.86 116.62 162.44 108.26 163.63 108.14 160.18 116.22"/><path class="cls-10" d="M220.61,106.59a6.38,6.38,0,0,0-.74-8.12l-5-5,4.88-9.23a2.65,2.65,0,0,0-.66-3.29l-.11-.09a1,1,0,0,0-1.44.13L206.75,95.83l-.14-.2-1.34-4.71a2.34,2.34,0,0,0-2.11-1.69l-.39,0a1.09,1.09,0,0,0-1.14,1.24l.89,6.49.1,4.66a3.43,3.43,0,0,0,.51,1.72l-30,35.25c-10.62,11.66,5.86,24.26,18.74,16.63Z"/><path class="cls-10" d="M215.74,92.66l-.07.18-4.14,9.8a2.1,2.1,0,0,0,.79,2.58l.57.37a.67.67,0,0,0,1-.26l4.55-9.18a1.72,1.72,0,0,0-.63-2.18Z"/><path class="cls-11" d="M213.26,106.2a1.12,1.12,0,0,1-.64-.19l-.57-.37a2.6,2.6,0,0,1-1-3.19l4.43-10.53,2.55,1.63a2.22,2.22,0,0,1,.82,2.81l-4.56,9.19a1.19,1.19,0,0,1-.74.61A1.15,1.15,0,0,1,213.26,106.2ZM216,93.41l-4,9.43a1.6,1.6,0,0,0,.6,2l.57.37a.22.22,0,0,0,.14,0,.18.18,0,0,0,.11-.09L218,95.93a1.21,1.21,0,0,0-.45-1.54Z"/><path class="cls-10" d="M218.84,95.21l-.06.15-3.72,8.81a1.88,1.88,0,0,0,.71,2.32l.52.33a.59.59,0,0,0,.86-.24l4.1-8.24a1.56,1.56,0,0,0-.57-2Z"/><path class="cls-11" d="M216.62,107.42a1.09,1.09,0,0,1-.61-.18l-.51-.33a2.4,2.4,0,0,1-.9-2.94l4-9.51L221,96a2.05,2.05,0,0,1,.75,2.59l-4.1,8.25a1.08,1.08,0,0,1-.69.58A1.55,1.55,0,0,1,216.62,107.42ZM219.08,96l-3.56,8.41a1.4,1.4,0,0,0,.52,1.71l.52.33.59.18-.44-.22,4.09-8.25a1,1,0,0,0-.39-1.31Z"/><path class="cls-10" d="M221.38,97.16l-.06.14-3.37,8a1.71,1.71,0,0,0,.65,2.1l.46.3a.54.54,0,0,0,.79-.22l3.7-7.47a1.4,1.4,0,0,0-.51-1.77Z"/><path class="cls-11" d="M219.36,108.27a1.06,1.06,0,0,1-.57-.17l-.47-.3a2.21,2.21,0,0,1-.83-2.72l3.65-8.67,2.17,1.39a1.9,1.9,0,0,1,.7,2.4l-3.71,7.49a1.11,1.11,0,0,1-.66.54A1.45,1.45,0,0,1,219.36,108.27Zm2.25-10.37-3.2,7.57a1.21,1.21,0,0,0,.46,1.49l.46.3,3.78-7.49a.91.91,0,0,0-.34-1.13Z"/><path class="cls-7" d="M173.43,133.74,163.15,145q-.74-.22-1.5-.39l-17.44-3.7-.66-.19a20.55,20.55,0,0,0-11.05-.13,21.17,21.17,0,0,0-20,13l-6.43,15.38a2.77,2.77,0,0,0,1.72,3.72l6.08,2-9.34,47.91,66.3,7.75c2,.46.91-8.68.34-10.7l3.08-35.92,21.5-29.51a1.68,1.68,0,0,0-.24-2.23L175,133.66A1.12,1.12,0,0,0,173.43,133.74Z"/><path class="cls-10" d="M138.44,241.45c-.87-3.23-5.13-12-5.13-12a22.59,22.59,0,0,0-2.94-3.82h0l-1.8-6L124.8,197l6.38-16.76-21.94-7.11-4.92,12.24a21.76,21.76,0,0,0-.29,15.47l8.45,23.54,1.8,5.86.84,12.86c0,2.41,2.47,4.31,3.41,2.73-.45,1.82-.29,4,2,4.29,1.24.32,1.88-.43,2.27-1.43-.38,1.67-.42,3.37,1.45,3.78,2,.74,2.88-.72,3.37-2.33-.12,1.17.13,2.29,1.52,2.6,4.06.55,3.81-4.64,4-7.76,0-1.47,0-2.83.05-4.09a12.1,12.1,0,0,0,3.52,2.5,1.53,1.53,0,0,0,1.35,0,1.14,1.14,0,0,0,.5-.91A3.24,3.24,0,0,0,138.44,241.45Z"/><path class="cls-17" d="M133.22,240.88l-.44-7.09s2.51,7.49,2.48,8.78Z"/><path class="cls-11" d="M127.53,251.27l-.15,0a.5.5,0,0,1-.33-.62,43.28,43.28,0,0,0,.23-4.7.51.51,0,0,1,.5-.49h0a.5.5,0,0,1,.49.51,43.26,43.26,0,0,1-.27,5A.51.51,0,0,1,127.53,251.27Z"/><path class="cls-11" d="M122.71,249.53h0a.49.49,0,0,1-.49-.51l.12-3.85a.51.51,0,0,1,.5-.49h0a.5.5,0,0,1,.48.52l-.12,3.85A.5.5,0,0,1,122.71,249.53Z"/><path class="cls-11" d="M118.53,246.32h0a.5.5,0,0,1-.48-.52l.11-2.08a.51.51,0,0,1,.53-.47.49.49,0,0,1,.47.53l-.11,2.07A.49.49,0,0,1,118.53,246.32Z"/><path class="cls-9" d="M134.43,181.69a3.55,3.55,0,0,1-1.15-.19l-2-.68a.5.5,0,0,1,.32-.94l2,.68a2.56,2.56,0,0,0,3.11-1.28l6-12.15a.49.49,0,0,1,.67-.22.5.5,0,0,1,.23.67l-6,12.15A3.54,3.54,0,0,1,134.43,181.69Z"/><path class="cls-9" d="M173,198.18h-.06a.5.5,0,0,1-.44-.55l2.46-23.71a.5.5,0,0,1,1,.1l-2.47,23.72A.5.5,0,0,1,173,198.18Z"/><path class="cls-22" d="M185.64,205.7c4.56,3.58,9,7.3,13.26,11.27a113.24,113.24,0,0,1,12,12.78,41.28,41.28,0,0,1,4.82,7.55,16.06,16.06,0,0,1,1.45,4.55,8.15,8.15,0,0,1,0,2.65,6.17,6.17,0,0,1-1.18,2.66,6.42,6.42,0,0,1-2.21,1.8,9.89,9.89,0,0,1-2.46.86,18,18,0,0,1-4.76.33,46.74,46.74,0,0,1-8.92-1.4,116.77,116.77,0,0,1-16.71-5.63c-5.41-2.24-10.71-4.71-15.92-7.33A334.84,334.84,0,0,1,134.7,218.3q-14.67-9.48-28.38-20.36Q99.5,192.48,93,186.59a172.94,172.94,0,0,1-12.44-12.38c-2-2.18-3.87-4.43-5.66-6.8a51.61,51.61,0,0,1-4.9-7.54,24,24,0,0,1-1.76-4.35,10,10,0,0,1-.27-5.16,6,6,0,0,1,1.37-2.59,6.85,6.85,0,0,1,2.29-1.63,12.52,12.52,0,0,1,4.84-.91,35.85,35.85,0,0,1,8.92,1.29,81.67,81.67,0,0,1,8.38,2.66,152.58,152.58,0,0,1,15.91,7.15.39.39,0,0,1,.17.52.39.39,0,0,1-.5.19q-4-1.68-8.06-3.16c-2.7-1-5.42-1.95-8.17-2.78s-5.5-1.59-8.28-2.14a33.56,33.56,0,0,0-8.27-.77A9.35,9.35,0,0,0,73,149a2.93,2.93,0,0,0-1.76,2.14,6.91,6.91,0,0,0,.39,3.39,19.7,19.7,0,0,0,1.65,3.61,71.58,71.58,0,0,0,10.4,13.23,239.12,239.12,0,0,0,25.7,22.76c9,7.11,18.45,13.72,28.07,20s19.53,12.16,29.67,17.54c5.07,2.68,10.22,5.21,15.46,7.49a126.58,126.58,0,0,0,16,5.88,42.8,42.8,0,0,0,8.16,1.55,15.55,15.55,0,0,0,3.88-.12,4.69,4.69,0,0,0,2.82-1.34,3.77,3.77,0,0,0,.7-2.92,13.16,13.16,0,0,0-1-3.73,41.36,41.36,0,0,0-4.2-7.24,119.76,119.76,0,0,0-11-13.17c-4-4.17-8.13-8.19-12.39-12.11a.17.17,0,0,1,0-.24A.18.18,0,0,1,185.64,205.7Z"/><path class="cls-22" d="M176.11,185.67q5.05,1.11,10.09,2.37t10,2.8a160.08,160.08,0,0,1,19.57,7.27,70.28,70.28,0,0,1,9.32,5.13,32.32,32.32,0,0,1,4.37,3.42,14.49,14.49,0,0,1,3.63,5,9.86,9.86,0,0,1,.52,1.72,7.67,7.67,0,0,1,.1,1.92,7.13,7.13,0,0,1-.39,1.92,8.73,8.73,0,0,1-.81,1.72,13,13,0,0,1-4.86,4.22A27.36,27.36,0,0,1,225,224.4c-.87.32-1.75.69-2.62.95a54.16,54.16,0,0,1-5.27,1.42,119.87,119.87,0,0,1-21,2.41c-7,.26-14,.18-20.94-.13a378.72,378.72,0,0,1-41.47-4.36A412.86,412.86,0,0,1,92.91,216q-10.06-2.77-20-6.23a161.47,161.47,0,0,1-19.43-8.11,84.34,84.34,0,0,1-9.29-5.38,44.91,44.91,0,0,1-4.39-3.4,20.69,20.69,0,0,1-3.9-4.57c-.25-.51-.54-.95-.75-1.5a10.57,10.57,0,0,1-.54-1.73,8.12,8.12,0,0,1,.14-3.88A8.43,8.43,0,0,1,36.66,178a11.79,11.79,0,0,1,2.5-2.05,23.33,23.33,0,0,1,5.24-2.4,48.6,48.6,0,0,1,5.27-1.36,86,86,0,0,1,10.5-1.31c3.5-.24,7-.36,10.45-.32,6.95,0,13.87.45,20.74,1.17a.61.61,0,0,1,.54.66.61.61,0,0,1-.6.53c-6.88,0-13.75.2-20.57.7a114.27,114.27,0,0,0-20.06,2.95,27.65,27.65,0,0,0-8.7,3.56,7.49,7.49,0,0,0-1.42,1.28,3.27,3.27,0,0,0-.65,1.25,2,2,0,0,0,0,.59c-.06.19.09.43.1.64a5,5,0,0,0,.27.72c.11.25.32.52.46.78a17.06,17.06,0,0,0,2.95,3.12,38.53,38.53,0,0,0,3.88,2.76,78.5,78.5,0,0,0,8.76,4.65,237.53,237.53,0,0,0,38.53,12.91c13.19,3.45,26.6,6.15,40.08,8.35s27,3.85,40.65,4.77c6.79.47,13.6.71,20.37.63A128.81,128.81,0,0,0,216,221a45.15,45.15,0,0,0,4.76-1.07c.78-.2,1.51-.48,2.26-.72s1.45-.55,2.07-.9a8,8,0,0,0,3-2.28,3.09,3.09,0,0,0,.5-1.18,3.47,3.47,0,0,0,0-.65,4,4,0,0,0-.19-.76,9.79,9.79,0,0,0-2.28-3.41,27.66,27.66,0,0,0-3.61-3.14,71.23,71.23,0,0,0-8.48-5.3,172.28,172.28,0,0,0-18.63-8.47c-3.18-1.26-6.41-2.45-9.65-3.59s-6.5-2.28-9.77-3.34a.27.27,0,0,1-.17-.33A.26.26,0,0,1,176.11,185.67Z"/><circle class="cls-23" cx="246.01" cy="55.82" r="40.67" transform="translate(135.16 282.42) rotate(-76.72)"/><path class="cls-24" d="M286.54,59.06a18,18,0,0,0-2.93-2.71,12.59,12.59,0,1,1-24.31,4.59,12.74,12.74,0,0,1,.19-2.07,17.95,17.95,0,0,0,10.65,29.68A40.6,40.6,0,0,0,286.54,59.06Z"/><path class="cls-24" d="M279,53.88l-.42-.16-.86-.25-.76-.19-.74-.16c-.34-.06-.67-.11-1-.15l-.6-.08c-.55,0-1.11-.08-1.67-.08s-1.29,0-1.92.1l-.53.08c-.45.07-.9.13-1.35.23l-.52.13c-.44.11-.87.22-1.3.36l-.45.17c-.44.16-.88.33-1.3.52l-.35.17a14.07,14.07,0,0,0-1.33.7l-.24.14c-.46.28-.91.58-1.34.9l-.15.1c-.46.35-.9.72-1.32,1.1l-.06.06a15.7,15.7,0,0,0-1.28,1.3h0a12.74,12.74,0,0,0-.19,2.07,12.6,12.6,0,1,0,24.31-4.59h0A18,18,0,0,0,279,53.88Z"/><path class="cls-24" d="M279,53.88l-.42-.16-.86-.25-.76-.19-.74-.16c-.34-.06-.67-.11-1-.15l-.6-.08c-.55,0-1.11-.08-1.67-.08s-1.29,0-1.92.1l-.53.08c-.45.07-.9.13-1.35.23l-.52.13c-.44.11-.87.22-1.3.36l-.45.17c-.44.16-.88.33-1.3.52l-.35.17a14.07,14.07,0,0,0-1.33.7l-.24.14c-.46.28-.91.58-1.34.9l-.15.1c-.46.35-.9.72-1.32,1.1l-.06.06a15.7,15.7,0,0,0-1.28,1.3h0a12.74,12.74,0,0,0-.19,2.07,12.6,12.6,0,1,0,24.31-4.59h0A18,18,0,0,0,279,53.88Z"/><path class="cls-24" d="M244.44,74.65a21.84,21.84,0,0,0-38.78-13.78A40.71,40.71,0,0,0,232.4,94.15,21.84,21.84,0,0,0,244.44,74.65Z"/><circle class="cls-24" cx="243.51" cy="26.52" r="9.11" transform="translate(161.75 257.42) rotate(-76.72)"/><path class="cls-24" d="M243,27.91a6.37,6.37,0,0,0,5.94-8.7,9.06,9.06,0,0,0-12.22,1.27,7.19,7.19,0,0,0-.09,1.05A6.38,6.38,0,0,0,243,27.91Z"/><path class="cls-7" d="M305.12,88.88a40.71,40.71,0,0,1-4.38-.27,135.46,135.46,0,0,1-23.2-5.35c-.39-.12-1.27-.26-1-.55,3.35-3.78,3.4-5,3.7-4.91,18.67,5.65,26.24,5.44,28.13,4.72-1.49-4.12-19.29-18-57.25-34.45s-60.25-19.94-64.28-18.22c.72,1.73,5.16,6.86,19.84,15.64.28.17-.65.94-1.08,6.06,0,.39-.77-.18-1.13-.39C177.7,35.33,180.19,29.57,181.13,27.4c1.38-3.17,5.52-6.2,25.46-1.33,13.08,3.2,29.73,9,46.9,16.49s32.83,15.59,44.1,23C314.78,76.72,315.41,81.81,314,85S308.92,88.88,305.12,88.88Z"/><circle class="cls-24" cx="265.53" cy="30.19" r="3.67"/><path class="cls-24" d="M222.92,44.76a2.38,2.38,0,1,1-2.38-2.37A2.39,2.39,0,0,1,222.92,44.76Z"/><g class="cls-25"><path class="cls-7" d="M63.09,61.35a21.79,21.79,0,0,0-9.41,15.06,22.36,22.36,0,0,0-.21,2.94,21.73,21.73,0,0,0,2,9.14,23,23,0,0,0,1.65,3l.15.22a21.86,21.86,0,0,0,39-5.66,22.17,22.17,0,0,0,.75-3.2,21.93,21.93,0,0,0-.6-9.48,21.62,21.62,0,0,0-2.89-6.14A21.86,21.86,0,0,0,63.09,61.35Z"/><path class="cls-26" d="M77.66,93.52a16.69,16.69,0,0,0-.73-2,16,16,0,0,0-1.44-2.62,16.48,16.48,0,0,0-21.61-5.2,21.83,21.83,0,0,0,1.54,4.8,23,23,0,0,0,1.65,3l.15.22A21.85,21.85,0,0,0,78,101.14c0-.16.07-.32.09-.48A16.46,16.46,0,0,0,77.66,93.52Z"/><path class="cls-26" d="M73.55,62.35a5.05,5.05,0,0,0-2.17,3.48c0,.22,0,.45,0,.68a5,5,0,0,0,.46,2.1,3.88,3.88,0,0,0,.38.69l0,0a5,5,0,0,0,9-1.3,6.11,6.11,0,0,0,.17-.74,5.09,5.09,0,0,0-.14-2.19,5,5,0,0,0-.22-.61,5.72,5.72,0,0,0-.44-.8A5.05,5.05,0,0,0,73.55,62.35Z"/><path class="cls-26" d="M85.29,66.9a2.21,2.21,0,0,0-1,1.52,1.53,1.53,0,0,0,0,.3,2.28,2.28,0,0,0,.2.92,1.46,1.46,0,0,0,.17.3v0a2.21,2.21,0,0,0,3.94-.58,1.65,1.65,0,0,0,.07-.32,2.24,2.24,0,0,0-.06-1,1.17,1.17,0,0,0-.1-.26,2.09,2.09,0,0,0-.19-.36A2.2,2.2,0,0,0,85.29,66.9Z"/><path class="cls-26" d="M82.9,76.26a.69.69,0,0,0-.3.48s0,.06,0,.09a.59.59,0,0,0,.07.29.41.41,0,0,0,0,.09h0A.69.69,0,0,0,83.94,77a.38.38,0,0,0,0-.1.76.76,0,0,0,0-.3l0-.08-.06-.11A.69.69,0,0,0,82.9,76.26Z"/><g class="cls-27"><path class="cls-3" d="M53.71,76.21l-.33.2h.3Z"/><path class="cls-9" d="M75.88,80.43c-7.28,0-13.15-.56-19.58-2.61v0c-.23-.06-.64-.19-1.39-.45l-1.38-.46.16-.48-.3-.4c.21-.16.21-.15,1.84.4l1.37.46h0c7.4,2.35,14.08,2.71,23.13,2.51,7.74-.16,14.57-1.31,19.76-3.34a.5.5,0,0,1,.36.94c-5.29,2.06-12.24,3.24-20.1,3.4C78.41,80.41,77.13,80.43,75.88,80.43Z"/><path class="cls-9" d="M57.65,92.07a.5.5,0,0,1-.5-.5c0-.5,0-.5,1.84-.5h.79c5.72-.11,11.31-1.38,19-3.56a95.13,95.13,0,0,0,17.56-6.7A.49.49,0,0,1,97,81a.5.5,0,0,1-.21.67,95.47,95.47,0,0,1-17.75,6.79C71.29,90.67,65.63,92,59.79,92.07v0c-.19,0-.45,0-.8,0H57.65Z"/><path class="cls-9" d="M64.23,99.62a.49.49,0,0,1-.5-.47.51.51,0,0,1,.47-.53c.76,0,1.27-.08,1.86-.13s1.29-.12,2.41-.19a107.41,107.41,0,0,0,27.12-5.25.5.5,0,1,1,.31,1,108.51,108.51,0,0,1-27.37,5.3c-1.1.06-1.78.13-2.38.18s-1.12.11-1.9.14Z"/></g></g><g class="cls-28"><path class="cls-23" d="M405.46,294.3a14.86,14.86,0,0,0-4.09,20.48l.1.15A14.86,14.86,0,0,0,428,311.08a16.27,16.27,0,0,0,.51-2.17,14.86,14.86,0,0,0-23-14.61Z"/><path class="cls-26" d="M415.37,316.17a11.08,11.08,0,0,0-.5-1.36,10.44,10.44,0,0,0-1-1.79,11.21,11.21,0,0,0-14.69-3.53,14.94,14.94,0,0,0,2.17,5.29l.1.15a14.85,14.85,0,0,0,14.14,6.42c0-.11.05-.22.06-.33A11.23,11.23,0,0,0,415.37,316.17Z"/><path class="cls-26" d="M412.58,295a3.43,3.43,0,0,0-1.48,2.36,3.71,3.71,0,0,0,0,.47,3.28,3.28,0,0,0,.3,1.43,4.31,4.31,0,0,0,.26.47l0,0a3.43,3.43,0,0,0,4.76.92,3.38,3.38,0,0,0,1.34-1.81,2.15,2.15,0,0,0,.12-.5,3.37,3.37,0,0,0-.09-1.48,3.52,3.52,0,0,0-.15-.42,4.21,4.21,0,0,0-.3-.55A3.43,3.43,0,0,0,412.58,295Z"/><path class="cls-26" d="M420.55,298.07a1.46,1.46,0,0,0-.64,1,1.36,1.36,0,0,0,0,.2,1.55,1.55,0,0,0,.13.63,1.32,1.32,0,0,0,.12.2v0a1.49,1.49,0,0,0,2.08.4,1.53,1.53,0,0,0,.59-.79.87.87,0,0,0,.05-.22,1.31,1.31,0,0,0,0-.65,1.27,1.27,0,0,0-.06-.18,1,1,0,0,0-.14-.24A1.5,1.5,0,0,0,420.55,298.07Z"/><path class="cls-26" d="M418.93,304.44a.4.4,0,0,0-.2.32.13.13,0,0,0,0,.06.45.45,0,0,0,0,.2l0,.06h0a.48.48,0,0,0,.65.13.46.46,0,0,0,.19-.25.64.64,0,0,1,0-.07.44.44,0,0,0,0-.2.14.14,0,0,0,0-.06.3.3,0,0,0,0-.08A.47.47,0,0,0,418.93,304.44Z"/><g class="cls-27"><path class="cls-3" d="M399.09,304.41l-.23.13h.21A.51.51,0,0,1,399.09,304.41Z"/><path class="cls-9" d="M414.15,307.43a41.55,41.55,0,0,1-13.35-1.78h0c-.2-.05-.53-.16-1.1-.36l-.79-.26.16-.48-.43-.26c.21-.34.26-.33,1.38.05l1.08.37h0c5,1.59,9.54,1.83,15.67,1.7a40.07,40.07,0,0,0,13.38-2.26.5.5,0,0,1,.64.29.48.48,0,0,1-.28.64,41,41,0,0,1-13.72,2.33Z"/><path class="cls-9" d="M401.76,315.34a.5.5,0,0,1-.5-.5c0-.5,0-.5,1.95-.5,3.88-.07,7.67-.93,12.9-2.41a64.25,64.25,0,0,0,11.9-4.54.5.5,0,1,1,.46.88,64.6,64.6,0,0,1-12.09,4.63c-5.31,1.49-9.17,2.37-13.16,2.44h-1.46Z"/><path class="cls-9" d="M406.24,320.48a.5.5,0,0,1,0-1c.51,0,.86-.06,1.26-.09s.88-.08,1.64-.13a72.83,72.83,0,0,0,18.39-3.56.5.5,0,0,1,.64.32.51.51,0,0,1-.32.63,74,74,0,0,1-18.65,3.61c-.75,0-1.21.09-1.61.12s-.77.07-1.3.1Z"/></g></g><g class="cls-29"><path class="cls-7" d="M405.61,111.21a26.41,26.41,0,0,0-18.84,10.33,26.81,26.81,0,0,0-2,3,26.47,26.47,0,0,0-3.35,10.8,27,27,0,0,0,0,4.12c0,.11,0,.21,0,.32a26.43,26.43,0,0,0,44.44,17.08,24.92,24.92,0,0,0,2.69-2.93,26.43,26.43,0,0,0,5-10.34,25.2,25.2,0,0,0,.56-3.37,26.73,26.73,0,0,0,0-4.82A26.44,26.44,0,0,0,405.61,111.21Z"/><path class="cls-26" d="M401.94,153.77a21.19,21.19,0,0,0,.42-2.55,20,20,0,0,0-19.68-21.88,26.38,26.38,0,0,0-1.23,6,27,27,0,0,0,0,4.12c0,.11,0,.21,0,.32A26.42,26.42,0,0,0,397.8,162l.39-.46A20,20,0,0,0,401.94,153.77Z"/><path class="cls-26" d="M416.05,118.47a6.08,6.08,0,0,0-4.35,2.38,8.18,8.18,0,0,0-.45.69,5.86,5.86,0,0,0-.77,2.48,6.14,6.14,0,0,0,0,1,.17.17,0,0,0,0,.07A6.1,6.1,0,0,0,420.73,129a6.67,6.67,0,0,0,.62-.68,6,6,0,0,0,1.14-2.38,5.29,5.29,0,0,0,.13-.78,5.86,5.86,0,0,0,0-1.11A6.1,6.1,0,0,0,416.05,118.47Z"/><path class="cls-26" d="M425.73,130.21a2.62,2.62,0,0,0-1.9,1,2,2,0,0,0-.2.3,2.58,2.58,0,0,0-.34,1.09,2.94,2.94,0,0,0,0,.42v0a2.67,2.67,0,0,0,4.49,1.72,3.71,3.71,0,0,0,.27-.29,2.69,2.69,0,0,0,.5-1.05,1.86,1.86,0,0,0,.06-.34,3.84,3.84,0,0,0,0-.48A2.67,2.67,0,0,0,425.73,130.21Z"/><path class="cls-26" d="M417.67,138.66a.84.84,0,0,0-.59.33.24.24,0,0,0-.06.09.85.85,0,0,0-.11.35v.13h0a.83.83,0,0,0,.9.76.85.85,0,0,0,.5-.22.43.43,0,0,0,.09-.1.88.88,0,0,0,.16-.32s0-.07,0-.11a.76.76,0,0,0,0-.15A.85.85,0,0,0,417.67,138.66Z"/><g class="cls-27"><path class="cls-3" d="M386.92,121.35h-.47l.32.17Z"/><path class="cls-9" d="M435.21,149.35h-.07c-6.79-.95-14.8-3.82-23.18-8.29-9.76-5.21-16.68-9.59-23.19-16.56l0,0c-.19-.17-.48-.49-1-1l-1.42-1.57.36-.34,0-.5c.24,0,.24,0,1.83,1.74l.93,1c6.41,6.86,13.27,11.2,22.93,16.36,8.27,4.41,16.17,7.24,22.85,8.18a.51.51,0,0,1,.43.56A.51.51,0,0,1,435.21,149.35Z"/><path class="cls-9" d="M429.17,152.53h0a115.45,115.45,0,0,1-22.71-3.34c-9.51-2.3-16.23-4.28-22.44-7.62v0c-.19-.08-.47-.24-1-.51l-1.29-.73a.38.38,0,0,1-.13-.09.51.51,0,0,1,0-.71c.27-.26.27-.26,1.91.66l.93.52c6.12,3.29,12.78,5.25,22.21,7.53a114,114,0,0,0,22.5,3.31.51.51,0,0,1,.49.52A.5.5,0,0,1,429.17,152.53Z"/><path class="cls-9" d="M421,165h-.1a130.91,130.91,0,0,1-32-10.61c-1.2-.58-2-.92-2.63-1.21s-1.24-.56-2.07-1a.49.49,0,0,1-.22-.67.5.5,0,0,1,.67-.23c.81.41,1.38.66,2,.95s1.44.64,2.66,1.23A129.45,129.45,0,0,0,421.1,164a.5.5,0,0,1,.4.58A.51.51,0,0,1,421,165Z"/></g></g><g class="cls-30"><path class="cls-7" d="M20.39,331.09a10.69,10.69,0,0,0-1.77,8.54A11,11,0,0,0,19,341a10.71,10.71,0,0,0,2.46,3.88A10.26,10.26,0,0,0,22.75,346l.1.08a10.74,10.74,0,0,0,17-9.24,12.42,12.42,0,0,0-.2-1.61A10.88,10.88,0,0,0,37.75,331a12.92,12.92,0,0,0-.9-1.06,11.43,11.43,0,0,0-1.48-1.28A10.74,10.74,0,0,0,20.39,331.09Z"/><path class="cls-26" d="M32.58,343.43a7.37,7.37,0,0,0-.68-.8A8.05,8.05,0,0,0,20,343a11,11,0,0,0,1.53,1.95A10.26,10.26,0,0,0,22.75,346l.1.08a10.74,10.74,0,0,0,11.19.81,2,2,0,0,0,0-.24A8.06,8.06,0,0,0,32.58,343.43Z"/><path class="cls-26" d="M25.38,329.77a2.46,2.46,0,0,0-.41,2,3,3,0,0,0,.1.32,2.21,2.21,0,0,0,.56.89,2.35,2.35,0,0,0,.29.26h0a2.47,2.47,0,0,0,3.45-.56,2.54,2.54,0,0,0,.47-1.57c0-.12,0-.24-.05-.37a2.47,2.47,0,0,0-.44-1,2.31,2.31,0,0,0-.2-.24,3.17,3.17,0,0,0-.34-.3A2.48,2.48,0,0,0,25.38,329.77Z"/><path class="cls-26" d="M31.56,329.87a1.07,1.07,0,0,0-.18.86.74.74,0,0,0,0,.14,1.08,1.08,0,0,0,.25.39.69.69,0,0,0,.13.11h0a1.08,1.08,0,0,0,1.71-.93,1,1,0,0,0,0-.17,1,1,0,0,0-.19-.43l-.09-.1a.64.64,0,0,0-.15-.13A1.08,1.08,0,0,0,31.56,329.87Z"/><path class="cls-26" d="M32.05,334.58a.33.33,0,0,0,0,.27.09.09,0,0,0,0,0,.32.32,0,0,0,.08.12l0,0h0a.34.34,0,0,0,.47-.08.33.33,0,0,0,.07-.21s0,0,0-.06a.38.38,0,0,0-.06-.13l0,0s0,0,0,0A.35.35,0,0,0,32.05,334.58Z"/><g class="cls-27"><path class="cls-3" d="M18.6,339.53l-.12.15.14-.05S18.61,339.56,18.6,339.53Z"/><path class="cls-9" d="M18.62,340.13a.51.51,0,0,1-.5-.49c0-.5.25-.5,1.2-.53l.72,0c3.78-.17,6.78-1.11,11-2.76a29.41,29.41,0,0,0,8.46-4.86.5.5,0,0,1,.7,0,.5.5,0,0,1,0,.71,30,30,0,0,1-8.75,5c-4.21,1.65-7.41,2.65-11.32,2.83v0c-.18,0-.42,0-.73,0l-.71,0Z"/><path class="cls-9" d="M23,346.44a.5.5,0,0,1-.5-.5c0-.35,0-.37,1-.72l.31-.12a36.31,36.31,0,0,0,8.11-4.84,46.18,46.18,0,0,0,6.9-6.05.51.51,0,0,1,.71,0,.5.5,0,0,1,0,.71,47.69,47.69,0,0,1-7,6.18,37.65,37.65,0,0,1-8.34,5h0l-.32.13-.65.24A.58.58,0,0,1,23,346.44Z"/><path class="cls-9" d="M27.35,348.8a.5.5,0,0,1-.46-.31.49.49,0,0,1,.26-.65c.33-.15.56-.25.81-.38l1.1-.5a52.53,52.53,0,0,0,11.54-7,.5.5,0,1,1,.62.78,53.71,53.71,0,0,1-11.76,7.14c-.5.21-.8.36-1.07.49s-.5.24-.85.39A.65.65,0,0,1,27.35,348.8Z"/></g></g><polygon class="cls-23" points="29.18 108.07 34.15 110.35 29.39 113.41 26.91 118.5 24.07 113.83 19.1 111.56 23.86 108.5 26.34 103.41 29.18 108.07"/><polygon class="cls-9" points="268.41 141.59 278.61 146.27 268.83 152.55 263.75 163 257.9 153.42 247.69 148.75 257.48 142.46 262.56 132.01 268.41 141.59"/><polygon class="cls-23" points="383.95 50.18 388.92 52.45 384.15 55.51 381.68 60.6 378.83 55.94 373.86 53.66 378.63 50.6 381.1 45.51 383.95 50.18"/><polygon class="cls-9" points="207.71 296.61 212.67 298.88 207.91 301.94 205.44 307.03 202.59 302.37 197.62 300.09 202.38 297.03 204.86 291.94 207.71 296.61"/><polygon class="cls-3" points="451.05 237.16 456.02 239.43 451.26 242.49 448.79 247.58 445.94 242.92 440.97 240.64 445.73 237.58 448.21 232.49 451.05 237.16"/><polygon class="cls-23" points="418.87 384.15 423.84 386.43 419.07 389.49 416.6 394.58 413.75 389.91 408.78 387.63 413.55 384.58 416.02 379.49 418.87 384.15"/><circle class="cls-7" cx="191.46" cy="351.12" r="21.86" transform="translate(-75.55 53.38) rotate(-13.28)"/><path class="cls-31" d="M169.68,352.86a9.79,9.79,0,0,1,1.57-1.45,6.69,6.69,0,0,0-.47,2.46,6.77,6.77,0,1,0,13.44-1.11,9.65,9.65,0,0,1-5.73,15.95A21.82,21.82,0,0,1,169.68,352.86Z"/><path class="cls-32" d="M173.74,350.08,174,350l.46-.14.42-.11.39-.08.55-.08.32,0a8.72,8.72,0,0,1,.9-.05,8.89,8.89,0,0,1,1,.06l.28,0c.24,0,.49.07.72.12l.29.08a5.91,5.91,0,0,1,.69.19l.24.09a6.15,6.15,0,0,1,.71.28l.18.09c.25.11.49.24.72.37a.57.57,0,0,0,.13.08q.38.23.72.48l.07.06c.25.19.49.38.72.59l0,0a9.13,9.13,0,0,1,.69.7h0a6.77,6.77,0,1,1-13-1.35h0A9.62,9.62,0,0,1,173.74,350.08Z"/><path class="cls-33" d="M192.31,361.24a11.73,11.73,0,0,1,20.84-7.4,21.89,21.89,0,0,1-14.37,17.88A11.71,11.71,0,0,1,192.31,361.24Z"/><g class="cls-34"><path class="cls-35" d="M187.91,335.38a4.9,4.9,0,1,0,4.9-4.9A4.89,4.89,0,0,0,187.91,335.38Z"/><path class="cls-35" d="M193.09,336.12a3.42,3.42,0,0,1-3.43-3.43,3.38,3.38,0,0,1,.24-1.24,4.86,4.86,0,0,1,6.56.68,3.41,3.41,0,0,1-3.37,4Z"/></g><path class="cls-33" d="M179,337.35a2,2,0,1,0,2-2A2,2,0,0,0,179,337.35Z"/><path class="cls-33" d="M203.87,345.18a1.28,1.28,0,1,0,1.28-1.28A1.27,1.27,0,0,0,203.87,345.18Z"/><path class="cls-23" d="M159.68,369.78c-3.72,0-5-1.23-5.59-2.63-1.32-3,1.42-6.51,9.16-11.57a189.88,189.88,0,0,1,49.19-21.31c9-2.19,13.38-1.83,14.7,1.23,1,2.35.45,5.75-11.58,13.09l-2.24,1.48-1-5.38.6-.37c5.29-3.23,7.66-5.32,8.71-6.47h0c-4,0-15.49,2.52-32.56,9.92s-26.78,14.06-29.52,17c1.62,0,4.95-.3,11.4-2.14l1.64-.46,3.25,4.24-3.52,1C166.37,369.14,162.38,369.78,159.68,369.78Z"/><path class="cls-15" d="M171.52,359.64l-.06-.5L171,359c.11-.3.11-.3,1.46-.43l1.66-.16h0c7.21-.83,13-3.1,20.69-6.73,6.53-3.11,11.91-6.72,15.56-10.43a.5.5,0,1,1,.71.7c-3.72,3.8-9.2,7.47-15.84,10.63-7.74,3.68-13.66,6-21,6.82v0c-.27,0-.76.1-1.69.19Z"/><path class="cls-15" d="M176.18,370a.5.5,0,0,1-.5-.5c0-.39,0-.39,1.6-.78l1.42-.35h0c7-1.86,12.46-4.94,19.51-9.63,6-4,10.83-8.35,13.9-12.55a.51.51,0,0,1,.7-.11.5.5,0,0,1,.11.7c-3.14,4.29-8,8.71-14.16,12.79-7.13,4.75-12.66,7.87-19.8,9.76v0c-.24.08-.66.19-1.44.38l-1.2.29A.3.3,0,0,1,176.18,370Z"/><path class="cls-9" d="M342.41,84.85a1.53,1.53,0,0,1-3.05,0,1.53,1.53,0,1,1,3.05,0Z"/><path class="cls-9" d="M420.67,206.5a1.52,1.52,0,1,1-1.52-1.52A1.52,1.52,0,0,1,420.67,206.5Z"/><path class="cls-23" d="M136.71,337.35a1.52,1.52,0,1,1-1.52-1.53A1.52,1.52,0,0,1,136.71,337.35Z"/><circle class="cls-23" cx="26.63" cy="416.97" r="1.52"/><path class="cls-9" d="M47.52,245.58A1.52,1.52,0,1,1,46,244.05,1.52,1.52,0,0,1,47.52,245.58Z"/><path class="cls-3" d="M207.61,147.91a1.52,1.52,0,1,1-1.52-1.52A1.52,1.52,0,0,1,207.61,147.91Z"/><path class="cls-3" d="M215.58,4.41A4.41,4.41,0,1,1,211.17,0,4.42,4.42,0,0,1,215.58,4.41Z"/><path class="cls-3" d="M164.7,387.63a4.41,4.41,0,1,1-4.41-4.41A4.4,4.4,0,0,1,164.7,387.63Z"/><path class="cls-3" d="M450.62,166a4.41,4.41,0,1,1-4.41-4.41A4.42,4.42,0,0,1,450.62,166Z"/><path class="cls-3" d="M257.29,313.17a1.52,1.52,0,1,1-1.52-1.52A1.53,1.53,0,0,1,257.29,313.17Z"/><circle class="cls-23" cx="196.16" cy="438.85" r="1.52"/><path class="cls-7" d="M330.76,2.89a1.53,1.53,0,1,1-1.53-1.53A1.53,1.53,0,0,1,330.76,2.89Z"/><path class="cls-7" d="M222.07,174.27a1.53,1.53,0,1,1-1.53-1.52A1.53,1.53,0,0,1,222.07,174.27Z"/><path class="cls-7" d="M288.06,119.82a1.52,1.52,0,1,1-1.52-1.52A1.52,1.52,0,0,1,288.06,119.82Z"/><path class="cls-7" d="M8.42,161.9a1.53,1.53,0,1,1-1.52-1.52A1.52,1.52,0,0,1,8.42,161.9Z"/></g></g></svg>